<svg version="1.0" xmlns="http://www.w3.org/2000/svg" width="688" height="688" viewBox="0 0 516 516"><path d="M10.4 9.4c-6 6-7.4 8-7.4 10.5 0 1.7.5 3.1 1.2 3.1C5.7 23 24 4.7 24 3.2c0-.7-1.4-1.2-3.1-1.2-2.5 0-4.5 1.4-10.5 7.4zm9.9 9.9C5.1 34.5 3 37 3 39.8c0 1.9.5 3.2 1.2 3.2C5.8 43 44 4.8 44 3.2c0-.7-1.3-1.2-3.2-1.2-2.8 0-5.3 2.1-20.5 17.3zm10 10C5.9 53.7 3 56.9 3 59.8c0 1.9.5 3.2 1.2 3.2C5.8 63 64 4.8 64 3.2c0-.7-1.3-1.2-3.2-1.2-2.9 0-6.1 2.9-30.5 27.3zm10 10C6.7 72.9 3 76.9 3 79.8c0 1.9.5 3.2 1.2 3.2C5.9 83 84 4.9 84 3.2c0-.7-1.3-1.2-3.2-1.2-2.9 0-6.9 3.7-40.5 37.3zm10 10C7.4 92.1 3 96.8 3 99.8c0 1.9.5 3.2 1.2 3.2C5.9 103 104 4.9 104 3.2c0-.7-1.3-1.2-3.2-1.2-3 0-7.7 4.4-50.5 47.3zm10 10C8.2 111.3 3 116.8 3 119.8c0 1.9.5 3.2 1.2 3.2C5.9 123 125 3.8 124.4 2.8c-.3-.4-1.9-.8-3.7-.8-2.9 0-8.8 5.6-60.4 57.3zm10 10C9 130.6 3 136.8 3 139.8c0 1.9.5 3.2 1.2 3.2C5.9 143 145 3.8 144.4 2.8c-.3-.4-1.9-.8-3.7-.8-2.9 0-9.7 6.5-70.4 67.3zm10 10C9.7 149.8 3 156.8 3 159.8c0 1.9.5 3.2 1.2 3.2C5.9 163 165 3.8 164.4 2.8c-.3-.4-1.9-.8-3.7-.8-2.9 0-10.5 7.3-80.4 77.3zm10 10C10.5 169 3 176.8 3 179.8c0 1.9.5 3.2 1.2 3.2C5.9 183 185 3.8 184.4 2.8c-.3-.4-1.9-.8-3.7-.8-2.9 0-11.4 8.2-90.4 87.3zm10 10C11.3 188.2 3 196.8 3 199.8c0 1.9.5 3.2 1.2 3.2C5.9 203 205 3.8 204.4 2.8c-.3-.4-1.9-.8-3.7-.8-2.9 0-12.2 9-100.4 97.3zm10 10C12.1 207.5 3 216.8 3 219.8c0 1.9.5 3.2 1.2 3.2C5.9 223 225 3.8 224.4 2.8c-.3-.4-1.9-.8-3.7-.8-2.9 0-13.1 9.9-110.4 107.3zm39-19.1C100.7 138.8 61 179 61 179.7c0 .6-.5 1.5-1.2 1.9-.7.5-.8.3-.3-.6.4-.7-3.2 2.1-8.1 6.3-9.1 7.7-17.9 16.5-22.8 22.7-1.5 1.9-7.9 8.7-14.2 15.1-9.7 9.8-11.4 12-11.4 14.7 0 1.8.4 3.2 1 3.2.5 0 2.9-1.7 5.2-3.8 3.2-2.9 3.8-3.2 2.9-1.3-.7 1.3-2.4 5.5-3.7 9.4-1.3 3.8-3.3 7.6-4.3 8.4-1.9 1.3-2 2.7-2 34.4 0 25.3.3 32.9 1.3 32.6.7-.3 1.8 1.6 2.7 4.9.9 2.9 1.3 5.1.8 4.9-1.2-.8-4.9 5.1-4.9 7.9 0 3.2 1 3.3 4.8.1l2.9-2.4 1.7 3.5 1.7 3.6-5.6 5.9c-4.1 4.5-5.5 6.8-5.5 9 0 1.6.5 2.9 1.1 2.9.6 0 3.7-2.5 7-5.7 3.2-3.1 6-5.4 6.2-5.2.2.2 1.1 1.7 2.1 3.2l1.7 2.9-9 9.3C3.7 375.2 2 377.5 2 380c0 1.6.5 3 1.1 3 .7 0 5.6-4.3 10.9-9.6l9.8-9.5L26 367l2.2 3.1-13.1 13.4C4 394.8 2 397.3 2 399.9c0 1.7.5 3.1 1.2 3.1.6 0 7.5-6.3 15.2-13.9l14.1-14 3 2.6 3 2.6-18.2 18.2C4.2 414.4 2 417 2 419.8c0 1.8.5 3.2 1.2 3.2 1.9 0 38.8-37.2 38.1-38.4-.3-.6.9.2 2.8 1.9 1.9 1.6 3.6 3.1 3.8 3.3.3.1-10 10.7-22.7 23.6C4.7 433.9 2 437.1 2 439.8c0 1.8.5 3.2 1.2 3.2s12.3-11 25.8-24.4l24.5-24.4 3.2 2.1 3.2 2.2L31 427.6C5.2 453.4 2 457 2 459.8c0 1.8.5 3.2 1.2 3.2s15-13.8 31.9-30.6c32.6-32.5 30.6-31 35.9-27.5 1.2.8-5.4 7.9-33.7 36.4C5.5 473 2 476.9 2 479.8c0 1.8.5 3.2 1.2 3.2s17.9-16.7 38.4-37.1l37.1-37.1 4.2 1.3 4.2 1.3L44.6 454C6.1 492.5 2 496.9 2 499.8c0 1.9.5 3.2 1.2 3.2s21.3-20.1 45.9-44.6l44.6-44.6 3.7.7c2 .4 3.8 1 4.1 1.4.2.4-21 22.1-47.1 48.2C28.3 490.1 7 511.8 7 512.2c0 .5 1.7.8 3.7.8 3.6 0 5.6-1.9 51.8-47.9l48-48 4.9.6 4.8.6-46.6 46.6C48 490.5 27 511.8 27 512.3c0 .4 1.7.7 3.7.7 3.6 0 5.6-1.8 51.3-47.5l47.5-47.5h11l-46.8 46.8C68 490.5 47 511.8 47 512.3c0 .4 1.7.7 3.7.7 3.6 0 5.6-1.8 51.3-47.5l47.5-47.5h11l-46.8 46.8C88 490.5 67 511.8 67 512.3c0 .4 1.7.7 3.7.7 3.6 0 5.6-1.8 51.3-47.5l47.5-47.5h11l-46.8 46.8C108 490.5 87 511.8 87 512.3c0 .4 1.7.7 3.7.7 3.6 0 5.6-1.8 51.3-47.5l47.5-47.5h11l-46.8 46.8c-25.7 25.7-46.7 47-46.7 47.5 0 .4 1.7.7 3.7.7 3.6 0 5.6-1.8 51.3-47.5l47.5-47.5h11l-46.8 46.8c-25.7 25.7-46.7 47-46.7 47.5 0 .4 1.7.7 3.7.7 3.6 0 5.6-1.8 51.3-47.5l47.5-47.5h11l-46.8 46.8C168 490.5 147 511.9 147 512.3c0 .4 1.7.7 3.7.7 3.6 0 5.6-1.8 51.3-47.5l47.5-47.5 5 .6 5 .6-45.3 45.1c-24.9 24.9-45.8 46-46.3 47-.8 1.5-.5 1.7 2.7 1.7 3.5 0 5.8-2.2 51-47l47.3-47h11.4l-45.7 45.1c-25.1 24.8-46.1 46-46.7 47-.9 1.7-.6 1.9 2.6 1.9 3.4 0 6.2-2.5 50.5-46.2 25.8-25.4 46.7-46.5 46.5-46.8-.2-.4 2.6-.8 6.3-.9l6.7-.1-47 46.7c-45.8 45.5-46.9 46.7-43.8 47 1.8.2 3.9.1 4.7-.4.8-.4 22.6-21.6 48.4-47.1l47-46.2 5.3.1h5.4l-47 46.7c-46.1 45.7-46.9 46.6-43.7 47 1.8.2 4.3-.3 5.5-1.1 1.2-.8 23-22 48.4-47.1l46.2-45.7 5.2.3 5.1.3-46.8 46.5c-39.2 39-46.4 46.6-44.5 46.8 1.3.2 3.5.1 5-.3 1.6-.4 19.3-17.3 49.1-47.1l46.5-46.4h11l-46.8 46.8c-25.7 25.7-46.7 47-46.7 47.5 0 .4 1.7.7 3.7.7 3.6 0 5.6-1.8 51.3-47.5l47.5-47.5h11l-46.8 46.8c-25.7 25.7-46.7 47-46.7 47.5 0 .4 1.7.7 3.7.7 3.6 0 5.6-1.8 51.3-47.5l47.5-47.5h11l-46.8 46.8c-25.7 25.7-46.7 47-46.7 47.5 0 .4 1.7.7 3.7.7 3.6 0 5.6-1.9 52.3-48.4l48.5-48.4 7.4-2 7.4-2-49.7 49.7c-27.3 27.3-49.6 49.9-49.6 50.4 0 .4 1.7.7 3.7.7 3.6 0 5.8-2 57.3-53.4 46.8-46.7 54.4-53.9 61-57.6 20.2-11.5 36.2-27.4 48.8-48.6 3.2-5.4 8-12 10.5-14.5 3.9-3.9 4.7-5.3 4.7-8.4 0-3.7 0-3.7-2.3-2.2l-2.3 1.5 2.4-8.6c2.2-7.9 2.5-10.6 2.6-30.2.1-14.6-.3-23.3-1.2-27.2-1.2-5-1.1-6.1.2-8 .9-1.2 1.6-3.8 1.6-5.6 0-3.4 0-3.4-2.4-1.9-2.3 1.5-2.3 1.5-3.5-2.4-1.2-3.9-1.1-4.1 2.3-8 2.7-2.9 3.6-4.8 3.6-7.4 0-3.1-.2-3.4-1.7-2.6-1 .5-3.1 2.3-4.7 4-3.2 3.4-4.6 3.9-4.6 1.7 0-.7-1-2.6-2.2-4.2-1.3-1.5-1.8-2.5-1.2-2.1.6.3 4-2.4 7.8-6.2 5.6-5.9 6.6-7.4 6.6-10.5 0-2-.3-3.6-.6-3.6-.4 0-4.2 3.5-8.5 7.7s-8 7.5-8.2 7.2c-.2-.2-1.1-1.7-2.1-3.3l-1.8-2.8 10.6-10.8c9.6-9.7 10.6-11.1 10.6-14.4 0-2-.3-3.6-.7-3.6-.3 0-6 5.3-12.5 11.7l-12 11.8-2.4-3-2.3-3 14.9-15.1c13.9-14 15-15.3 15-18.8 0-3.2-.2-3.5-1.7-2.7-1 .5-8.8 8-17.3 16.5L479.6 201l-2.8-2.7-2.8-2.7 20-20.1c18.8-18.9 20-20.3 20-23.8 0-2-.3-3.7-.7-3.7-.4 0-10.5 9.7-22.4 21.6l-21.7 21.7-3-2.4-3-2.4 25.4-25.5c24-24.2 25.4-25.8 25.4-29.3 0-2-.3-3.7-.7-3.7-.4 0-13 12.3-28 27.2L458 182.5l-3.5-2-3.6-1.9 31.6-31.6c30-30.1 31.5-31.7 31.5-35.3 0-2-.3-3.7-.7-3.7-.4 0-15.9 15.1-34.4 33.6l-33.6 33.6-3.8-1.7-3.9-1.6 38.2-38.2c36.6-36.6 38.2-38.4 38.2-42 0-2-.3-3.7-.7-3.7-1.3 0-81.2 80.3-80.7 81.1.2.4-1.9 0-4.6-.9l-5.1-1.6 45.6-45.6C512.2 77.2 514 75.3 514 71.7c0-2-.3-3.7-.7-3.7-.4 0-22.6 21.8-49.3 48.4l-48.5 48.3-4.4-.9-4.4-1 53.7-53.7C512 57.4 514 55.3 514 51.7c0-2-.3-3.7-.7-3.7-1.2 0-113.2 112.3-112.8 113 .2.4-2.6.8-6.3.9l-6.7.2 63.3-63.3C512 37.4 514 35.3 514 31.7c0-3.3-.2-3.6-1.7-2.8-1 .5-31.5 30.7-67.8 67l-66 66.1h-11l73.3-73.3c71-71.1 73.2-73.3 73.2-77 0-3.3-.2-3.6-1.7-2.8-1 .5-36 35.2-77.8 77l-76 76.1h-11l78.8-78.8c43.3-43.3 78.5-79.1 78.1-79.5-.4-.4-2.1-.7-3.8-.7-2.7 0-11.9 8.9-82.6 79.5L338.5 162h-11l78.8-78.8c43.3-43.3 78.5-79.1 78.1-79.5-.4-.4-2.1-.7-3.8-.7-2.7 0-11.9 8.9-82.6 79.5L318.5 162h-11l78.8-78.8c43.3-43.3 78.5-79.1 78.1-79.5-.4-.4-2.1-.7-3.8-.7-2.7 0-11.9 8.9-82.6 79.5-69.8 69.7-79.9 79.5-82.5 79.5-2.7 0-.1-2.9 28.3-31.3 17.1-17.1 31.2-31.5 31.2-32 0-.4-.8-.7-1.7-.7-1.1 0 17.7-19.5 45-46.8C424 25.5 444.8 4.1 444.4 3.7c-.4-.4-2.1-.7-3.8-.7-2.6 0-8.7 5.7-50.6 47.5L342.5 98h-11l46.8-46.8C404 25.5 424.8 4.1 424.4 3.7c-.4-.4-2.1-.7-3.8-.7-2.6 0-8.7 5.7-50.6 47.5L322.5 98h-11l46.8-46.8C384 25.5 404.8 4.1 404.4 3.7c-.4-.4-2.1-.7-3.8-.7-2.6 0-8.7 5.7-50.6 47.6l-47.7 47.5-5.1-.3-5.2-.3L338.4 51c25.6-25.5 46.2-46.8 46-47.2-.3-.4-1.9-.8-3.5-.8-2.7 0-15.4 12.3-110.2 106.4L163.5 215.8l-.3-5.1-.4-5.2 100.7-100C318.8 50.5 364.1 4.9 364 4.2c0-.7-1.3-1.2-3.1-1.2-2.8 0-13.4 10.2-100.5 96.6L163 196.2v-5.3l-.1-5.4 90.6-90C303.3 46 344 4.9 344 4.2c0-.7-1.3-1.2-3.2-1.2-3.5 0-2.5-.9-130 126L163 176.5v-11.3l80.5-79.9C287.8 41.4 324 4.9 324 4.2c0-.7-1.3-1.2-3.2-1.2-3.5 0-5.8 2.2-112.4 108.3l-50 49.8-5.4-.3-5.3-.3 78.1-77.6C268.8 40.3 304 4.8 304 4.2c0-.7-1.4-1.2-3.1-1.2-3.7 0-6.4 2.5-102.5 98.3l-60 59.8-5.3-.3-5.4-.3 78.2-77.7C248.8 40 284 4.6 284 4c0-.5-1.4-1-3-1-4 0-5.1 1.1-92.5 88.1l-70 69.8-6.4.9-6.4.9 79.2-79.1c43.5-43.5 79.3-79.4 79.6-79.7.3-.4-1.1-.9-3.2-1.2l-3.8-.5-80.7 80.6c-56.7 56.6-80.4 80.9-79.5 81.5.8.6.7.7-.4.4-.9-.3-2-.2-2.5.3-.5.4-3.4 1.5-6.4 2.5-3 1-6.8 2.4-8.5 3.2-1.6.8 34.9-36.5 81.3-82.9 46.4-46.4 84-84.7 83.6-85.1-.4-.4-2.1-.7-3.8-.7-2.7 0-12.8 9.7-91.3 88.2zm53.6 113.4c4.7 4.7 7.7 8.4 6.8 8.2-1-.2-23.6 21.5-63.2 60.6-61.1 60.4-61.6 60.8-63.6 59-2.2-2-4.7-6-3.2-5.1.4.2 28.4-26.9 62.2-60.3l61.4-60.7-2.3-2.3-2.2-2.2-28.7 28.3c-15.7 15.6-43.3 43-61.3 60.8l-32.6 32.4-2.2-3.4-2.1-3.4 60.8-60.2c33.4-33.1 61-60.2 61.3-60.3.3 0 4.3 3.9 8.9 8.6zm16.3 16.8c.6 1 .6 1.6.1 1.3-.5-.4-28.5 26.6-62.1 59.9-52.8 52.3-61.4 60.4-63 59.5-5.5-2.9-7.4-.7 57.2-64.6 42.4-42 61.2-61.3 60.8-62.3-.7-2 5.7 3.7 7 6.2zm7.8 7.1l2.4 2.6-9.4 9.3c-5.2 5.1-32.3 31.8-60.1 59.4L109.3 349l-3.9-1.6-3.9-1.7 60.9-60.3c33.5-33.2 61.2-60.4 61.6-60.4.4 0 1.7 1.1 3 2.5zm-126.5 30.9c-18.1 17.8-33.3 32.2-33.8 31.9-.4-.2-.5-.8-.3-1.2.3-.4.6-3 .7-5.9.1-2.8.6-5 1-4.9 1.2.3 50.9-48.5 50.3-49.4-.3-.5-.2-.9.3-.8.4.1 1.5-.1 2.3-.4 1.3-.5 3.3-.8 11-1.5.8-.1-13.3 14.4-31.5 32.2zm52.5-32.1c0 .8-83.2 81.9-83.6 81.4-.3-.2-.8-2.2-1.1-4.3l-.6-3.9 37.4-36.7 37.4-36.8h5.3c2.8 0 5.2.1 5.2.3zm170.3 10.9L313 247.5l-2.7-2.8-2.8-2.7 7.5-7.5 7.4-7.5h11.1l-10.2 10.2zm15 5L323 257.5l-2.7-2.8-2.8-2.7 12.5-12.5 12.5-12.5h11l-15.2 15.2zm24.2-4.1c-6.1 6.1-15.4 15.1-20.8 20.1-9.7 9-9.8 9-11.8 7.2-2.4-2.2-4.7-6-3-5 .7.5 8.3-6.3 18.4-16.3l17.2-17.1h11l-11 11.1zm25.8-10.4l3.8.6-5.3 5.4c-2.9 3-14.2 14.1-25.1 24.6l-19.8 19-2.7-2.6-2.6-2.7 22.9-22.4c12.7-12.4 23.5-22.5 24-22.5.6-.1 2.7.2 4.8.6zm17.3 2.9c1.3.3 2.4 1 2.4 1.4 0 .4-12.4 12.7-27.4 27.4-20.8 20.2-27.3 27.1-26.8 28.4.3.9-1.2 0-3.3-2.1l-4-3.8 27-26.4c15.6-15.3 27.6-26.2 28.3-26 .8.3 2.5.8 3.8 1.1zm-305.1 8.5c-4.4 4.4-12.9 12.6-18.8 18.2-9.9 9.2-10.8 9.8-9.3 6.4 2.9-7 14.7-20.3 22.9-25.9 5-3.4 11.1-6.6 12.7-6.8.2 0-3.1 3.6-7.5 8.1zm136.4-1.7l2.3 2.4-56.2 55.9c-49.6 49.2-56.6 55.8-59.6 56.1-8.9.8-9.2 1.2 51.6-59.1 32-31.7 58.5-57.7 58.9-57.7.4 0 1.8 1.1 3 2.4zm182-.5l2.4 1.9-57.8 57.3-57.7 57.4-5.7.2-5.6.3 59.8-59.5c32.9-32.7 60.4-59.5 61-59.5.7 0 2.3.9 3.6 1.9zm11 8.5l2.2 2.3-53.1 52.9-53.2 52.9-5.6.3-5.7.2 55.7-55.5c30.7-30.5 56.2-55.5 56.6-55.5.5 0 1.9 1.1 3.1 2.4zm-232.6 55.9l-51.4 51.2-5.7.3-5.7.2 54.3-54.1 54.3-54.1 2.8 2.6 2.8 2.7-51.4 51.2zm242.3-42.8c.1.7-21.1 22.5-47 48.4l-47.2 47.2-5.3-.3-5.2-.3 50.7-50.5 50.6-50.5 1.6 2.4c.9 1.3 1.7 2.9 1.8 3.6zm-227.6 48L165.5 353h-11l49.3-49.2 49.2-49.2 2.7 2.7 2.8 2.7-46.5 46.5zm53.9-38.1l2.3 2.4-41.2 40.8-41.2 40.9-5.6.3-5.7.2 43.6-43.5c24-23.9 44-43.5 44.6-43.5.5 0 2 1.1 3.2 2.4zm178.7 1.3l1.6 3.6-40.4 40.4-40.3 40.3h-11l44-44c24.2-24.2 44.1-44 44.3-44 .2 0 1 1.6 1.8 3.7zM276 278.5l2.4 2.5-36.5 36-36.4 35.9h-11l38.8-38.4c21.4-21.2 39.2-38.5 39.6-38.5.4 0 1.8 1.1 3.1 2.5zm172.2 8.7c.3 3.1.1 5.5-.2 5.3-.3-.2-14.5 13.5-31.6 30.6L385.5 354h-11l36.5-36.8c20.1-20.2 36.6-36.5 36.7-36.2.1.3.3 3.1.5 6.2zm-162.1 1.4l2.4 2.6L258 321c-16.8 16.5-30.4 30.3-30.3 30.8.1.5-2.8 1-6.5 1l-6.7.2 34-33.5c18.7-18.4 34.3-33.5 34.6-33.5.3 0 1.6 1.2 3 2.6zm-8.9 33.4l-31.4 31h-11.3l31.5-31 31.5-30.9h11L277.2 322zm19.8.3l-31.5 31.4-5-.4-5-.5 30.2-30c16.6-16.6 30-30.4 29.8-30.8-.2-.4 2.6-.8 6.3-.9l6.7-.2-31.5 31.4zm20 .2L285.5 354h-11l30.8-30.8c16.9-16.9 30.5-31 30.2-31.3-.3-.3 2.5-.7 6.2-.8l6.8-.2-31.5 31.6zm128.9-14.8c-.7 2.1-1.9 5.4-2.7 7.3-.9 1.9-1.5 3.9-1.4 4.3.2.5-.1.6-.6.3s-6.4 5.1-13.1 11.8c-6.9 7-11.8 12.6-11.2 12.9.7.3.7.4-.1.3-.7-.2-2.2.4-3.3 1.4-2.2 1.9-12.6 6-15.3 6-1 0 8.9-10.5 23.3-25 13.8-13.8 25.1-24.6 25.3-24 .2.5-.2 2.7-.9 4.7z"/><path d="M429.7 430c-45.5 45.4-82.7 82.8-82.7 83.2 0 .5 1.7.8 3.7.8 3.6 0 6.3-2.5 82.6-78.8 43.3-43.3 79-79.7 79.3-80.8.3-1.2.4-3.3.2-4.5-.4-2.1-12.5 9.6-83.1 80.1zm10 10c-40 39.9-72.7 72.8-72.7 73.2 0 .5 1.7.8 3.7.8 3.6 0 6.1-2.3 72.6-68.8 37.8-37.8 69-69.7 69.3-70.8.3-1.2.4-3.3.2-4.5-.4-2.1-11 8.1-73.1 70.1zm10 10c-34.5 34.4-62.7 62.8-62.7 63.2 0 .5 1.7.8 3.7.8 3.6 0 5.9-2.1 62.6-58.7 32.3-32.4 59-59.8 59.3-60.9.3-1.2.4-3.3.2-4.5-.4-2.1-9.5 6.6-63.1 60.1zm10.9 9c-28.4 28.3-52.2 52.3-52.7 53.3-.8 1.5-.5 1.7 2.8 1.7 3.6 0 5.5-1.7 52.6-48.8 26.8-26.8 49-49.7 49.3-50.8.3-1.2.4-3.3.2-4.5-.4-2.1-7.8 4.9-52.2 49.1zm10 10c-22.9 22.8-42.2 42.3-42.7 43.2-.8 1.6-.5 1.8 2.8 1.8 3.6 0 5.3-1.5 42.6-38.8 21.3-21.3 39-39.7 39.3-40.8.3-1.2.4-3.3.2-4.5-.4-2.1-6.3 3.4-42.2 39.1zm10 10c-17.4 17.3-32.2 32.3-32.7 33.2-.8 1.6-.5 1.8 2.8 1.8 3.5 0 5.1-1.3 32.5-28.8 15.9-15.8 29.1-29.7 29.4-30.8.3-1.2.4-3.3.2-4.5-.4-2.1-4.8 1.9-32.2 29.1zm10 10c-11.9 11.8-22.2 22.3-22.7 23.2-.8 1.6-.5 1.8 2.8 1.8 3.5 0 4.8-1.1 22.5-18.7 10.4-10.4 19.1-19.8 19.4-20.9.3-1.2.4-3.3.2-4.5-.3-2.1-3.2.4-22.2 19.1zm9.7 10.2c-6.3 6.2-11.9 12.1-12.4 13.1-.8 1.5-.5 1.7 2.8 1.7s4.6-.9 13-9.3 9.3-9.7 9.3-13c0-2-.3-3.7-.7-3.7-.3 0-5.7 5.1-12 11.2z"/></svg>