<svg id="Layer_1" version="1.1" viewBox="0 0 32 32" xml:space="preserve" xmlns="http://www.w3.org/2000/svg"><style/><path d="M13.72 27a.997.997 0 01-.708-.293l-2.527-2.527a1 1 0 010-1.414l2.527-2.527a1 1 0 111.414 1.414l-1.82 1.82 1.82 1.82A1 1 0 0113.72 27zm4.56-14.946a1 1 0 01-.707-1.707l1.82-1.82-1.82-1.82a1 1 0 111.415-1.414l2.527 2.527a1 1 0 010 1.414l-2.527 2.527a.997.997 0 01-.707.293z"/><path d="M20.808 24.473h-9.616a1 1 0 010-2h9.616A6.2 6.2 0 0027 16.28a6.19 6.19 0 00-2.755-5.153.999.999 0 111.111-1.662A8.184 8.184 0 0129 16.281c0 4.517-3.675 8.192-8.192 8.192zM7.17 22.684a.999.999 0 01-.56-.172A8.192 8.192 0 013 15.72c0-4.517 3.675-8.192 8.192-8.192h9.616a1 1 0 010 2h-9.616A6.2 6.2 0 005 15.72c0 2.06 1.021 3.98 2.731 5.136a1 1 0 01-.561 1.829z"/></svg>