<?xml version="1.0" standalone="no"?>
<!DOCTYPE svg PUBLIC "-//W3C//DTD SVG 20010904//EN"
 "http://www.w3.org/TR/2001/REC-SVG-20010904/DTD/svg10.dtd">
<svg version="1.0" xmlns="http://www.w3.org/2000/svg"
 width="516.000000pt" height="516.000000pt" viewBox="0 0 516.000000 516.000000"
 preserveAspectRatio="xMidYMid meet">
<metadata>
Created by potrace 1.16, written by Peter Selinger 2001-2019
</metadata>
<g transform="translate(0.000000,516.000000) scale(0.100000,-0.100000)"
fill="#000000" stroke="none">
<path d="M104 5066 c-60 -60 -74 -80 -74 -105 0 -17 5 -31 12 -31 15 0 198
183 198 198 0 7 -14 12 -31 12 -25 0 -45 -14 -105 -74z"/>
<path d="M203 4967 c-152 -152 -173 -177 -173 -205 0 -19 5 -32 12 -32 16 0
398 382 398 398 0 7 -13 12 -32 12 -28 0 -53 -21 -205 -173z"/>
<path d="M303 4867 c-244 -244 -273 -276 -273 -305 0 -19 5 -32 12 -32 16 0
598 582 598 598 0 7 -13 12 -32 12 -29 0 -61 -29 -305 -273z"/>
<path d="M403 4767 c-336 -336 -373 -376 -373 -405 0 -19 5 -32 12 -32 17 0
798 781 798 798 0 7 -13 12 -32 12 -29 0 -69 -37 -405 -373z"/>
<path d="M503 4667 c-429 -428 -473 -475 -473 -505 0 -19 5 -32 12 -32 17 0
998 981 998 998 0 7 -13 12 -32 12 -30 0 -77 -44 -505 -473z"/>
<path d="M603 4567 c-521 -520 -573 -575 -573 -605 0 -19 5 -32 12 -32 17 0
1208 1192 1202 1202 -3 4 -19 8 -37 8 -29 0 -88 -56 -604 -573z"/>
<path d="M703 4467 c-613 -613 -673 -675 -673 -705 0 -19 5 -32 12 -32 17 0
1408 1392 1402 1402 -3 4 -19 8 -37 8 -29 0 -97 -65 -704 -673z"/>
<path d="M803 4367 c-706 -705 -773 -775 -773 -805 0 -19 5 -32 12 -32 17 0
1608 1592 1602 1602 -3 4 -19 8 -37 8 -29 0 -105 -73 -804 -773z"/>
<path d="M903 4267 c-798 -797 -873 -875 -873 -905 0 -19 5 -32 12 -32 17 0
1808 1792 1802 1802 -3 4 -19 8 -37 8 -29 0 -114 -82 -904 -873z"/>
<path d="M1003 4167 c-890 -889 -973 -975 -973 -1005 0 -19 5 -32 12 -32 17 0
2008 1992 2002 2002 -3 4 -19 8 -37 8 -29 0 -122 -90 -1004 -973z"/>
<path d="M1103 4067 c-982 -982 -1073 -1075 -1073 -1105 0 -19 5 -32 12 -32
17 0 2208 2192 2202 2202 -3 4 -19 8 -37 8 -29 0 -131 -99 -1104 -1073z"/>
<path d="M1493 4258 c-486 -486 -883 -888 -883 -895 0 -6 -5 -15 -12 -19 -7
-5 -8 -3 -3 6 4 7 -32 -21 -81 -63 -91 -77 -179 -165 -228 -227 -15 -19 -79
-87 -142 -151 -97 -98 -114 -120 -114 -147 0 -18 4 -32 10 -32 5 0 29 17 52
38 32 29 38 32 29 13 -7 -13 -24 -55 -37 -94 -13 -38 -33 -76 -43 -84 -19 -13
-20 -27 -20 -344 0 -253 3 -329 13 -326 7 3 18 -16 27 -49 9 -29 13 -51 8 -49
-12 8 -49 -51 -49 -79 0 -32 10 -33 48 -1 l29 24 17 -35 17 -36 -56 -59 c-41
-45 -55 -68 -55 -90 0 -16 5 -29 11 -29 6 0 37 25 70 57 32 31 60 54 62 52 2
-2 11 -17 21 -32 l17 -29 -90 -93 c-74 -77 -91 -100 -91 -125 0 -16 5 -30 11
-30 7 0 56 43 109 96 l98 95 22 -31 22 -31 -131 -134 c-111 -113 -131 -138
-131 -164 0 -17 5 -31 12 -31 6 0 75 63 152 139 l141 140 30 -26 30 -26 -182
-182 c-161 -159 -183 -185 -183 -213 0 -18 5 -32 12 -32 19 0 388 372 381 384
-3 6 9 -2 28 -19 19 -16 36 -31 38 -33 3 -1 -100 -107 -227 -236 -205 -205
-232 -237 -232 -264 0 -18 5 -32 12 -32 7 0 123 110 258 244 l245 244 32 -21
32 -22 -289 -291 c-258 -258 -290 -294 -290 -322 0 -18 5 -32 12 -32 7 0 150
138 319 306 326 325 306 310 359 275 12 -8 -54 -79 -337 -364 -318 -317 -353
-356 -353 -385 0 -18 5 -32 12 -32 7 0 179 167 384 371 l371 371 42 -13 42
-13 -425 -426 c-385 -385 -426 -429 -426 -458 0 -19 5 -32 12 -32 7 0 213 201
459 446 l446 446 37 -7 c20 -4 38 -10 41 -14 2 -4 -210 -221 -471 -482 -261
-260 -474 -477 -474 -481 0 -5 17 -8 37 -8 36 0 56 19 518 479 l480 480 49 -6
48 -6 -466 -466 c-256 -256 -466 -469 -466 -474 0 -4 17 -7 37 -7 36 0 56 18
513 475 l475 475 55 0 55 0 -468 -468 c-257 -257 -467 -470 -467 -475 0 -4 17
-7 37 -7 36 0 56 18 513 475 l475 475 55 0 55 0 -468 -468 c-257 -257 -467
-470 -467 -475 0 -4 17 -7 37 -7 36 0 56 18 513 475 l475 475 55 0 55 0 -468
-468 c-257 -257 -467 -470 -467 -475 0 -4 17 -7 37 -7 36 0 56 18 513 475
l475 475 55 0 55 0 -468 -468 c-257 -257 -467 -470 -467 -475 0 -4 17 -7 37
-7 36 0 56 18 513 475 l475 475 55 0 55 0 -468 -468 c-257 -257 -467 -470
-467 -475 0 -4 17 -7 37 -7 36 0 56 18 513 475 l475 475 55 0 55 0 -468 -468
c-257 -257 -467 -471 -467 -475 0 -4 17 -7 37 -7 36 0 56 18 513 475 l475 475
50 -6 50 -6 -453 -451 c-249 -249 -458 -460 -463 -470 -8 -15 -5 -17 27 -17
35 0 58 22 510 470 l473 470 57 0 57 0 -457 -451 c-251 -248 -461 -460 -467
-470 -9 -17 -6 -19 26 -19 34 0 62 25 505 462 258 254 467 465 465 468 -2 4
26 8 63 9 l67 1 -470 -467 c-458 -455 -469 -467 -438 -470 18 -2 39 -1 47 4 8
4 226 216 484 471 l470 462 53 -1 54 0 -470 -467 c-461 -457 -469 -466 -437
-470 18 -2 43 3 55 11 12 8 230 220 484 471 l462 457 52 -3 51 -3 -468 -465
c-392 -390 -464 -466 -445 -468 13 -2 35 -1 50 3 16 4 193 173 491 471 l465
464 55 0 55 0 -468 -468 c-257 -257 -467 -470 -467 -475 0 -4 17 -7 37 -7 36
0 56 18 513 475 l475 475 55 0 55 0 -468 -468 c-257 -257 -467 -470 -467 -475
0 -4 17 -7 37 -7 36 0 56 18 513 475 l475 475 55 0 55 0 -468 -468 c-257 -257
-467 -470 -467 -475 0 -4 17 -7 37 -7 36 0 56 19 523 484 l485 484 74 20 74
20 -497 -497 c-273 -273 -496 -499 -496 -504 0 -4 17 -7 37 -7 36 0 58 20 573
534 468 467 544 539 610 576 202 115 362 274 488 486 32 54 80 120 105 145 39
39 47 53 47 84 0 37 0 37 -23 22 l-23 -15 24 86 c22 79 25 106 26 302 1 146
-3 233 -12 272 -12 50 -11 61 2 80 9 12 16 38 16 56 0 34 0 34 -24 19 -23 -15
-23 -15 -35 24 -12 39 -11 41 23 80 27 29 36 48 36 74 0 31 -2 34 -17 26 -10
-5 -31 -23 -47 -40 -32 -34 -46 -39 -46 -17 0 7 -10 26 -22 42 -13 15 -18 25
-12 21 6 -3 40 24 78 62 56 59 66 74 66 105 0 20 -3 36 -6 36 -4 0 -42 -35
-85 -77 -43 -42 -80 -75 -82 -72 -2 2 -11 17 -21 33 l-18 28 106 108 c96 97
106 111 106 144 0 20 -3 36 -7 36 -3 0 -60 -53 -125 -117 l-120 -118 -24 30
-23 30 149 151 c139 140 150 153 150 188 0 32 -2 35 -17 27 -10 -5 -88 -80
-173 -165 l-154 -156 -28 27 -28 27 200 201 c188 189 200 203 200 238 0 20 -3
37 -7 37 -4 0 -105 -97 -224 -216 l-217 -217 -30 24 -30 24 254 255 c240 242
254 258 254 293 0 20 -3 37 -7 37 -4 0 -130 -123 -280 -272 l-273 -273 -35 20
-36 19 316 316 c300 301 315 317 315 353 0 20 -3 37 -7 37 -4 0 -159 -151
-344 -336 l-336 -336 -38 17 -39 16 382 382 c366 366 382 384 382 420 0 20 -3
37 -7 37 -13 0 -812 -803 -807 -811 2 -4 -19 0 -46 9 l-51 16 456 456 c437
438 455 457 455 493 0 20 -3 37 -7 37 -4 0 -226 -218 -493 -484 l-485 -483
-44 9 -44 10 537 537 c516 517 536 538 536 574 0 20 -3 37 -7 37 -12 0 -1132
-1123 -1128 -1130 2 -4 -26 -8 -63 -9 l-67 -2 633 633 c612 614 632 635 632
671 0 33 -2 36 -17 28 -10 -5 -315 -307 -678 -670 l-660 -661 -55 0 -55 0 733
733 c710 711 732 733 732 770 0 33 -2 36 -17 28 -10 -5 -360 -352 -778 -770
l-760 -761 -55 0 -55 0 788 788 c433 433 785 791 781 795 -4 4 -21 7 -38 7
-27 0 -119 -89 -826 -795 l-795 -795 -55 0 -55 0 788 788 c433 433 785 791
781 795 -4 4 -21 7 -38 7 -27 0 -119 -89 -826 -795 l-795 -795 -55 0 -55 0
788 788 c433 433 785 791 781 795 -4 4 -21 7 -38 7 -27 0 -119 -89 -826 -795
-698 -697 -799 -795 -825 -795 -27 0 -1 29 283 313 171 171 312 315 312 320 0
4 -8 7 -17 7 -11 0 177 195 450 468 257 257 465 471 461 475 -4 4 -21 7 -38 7
-26 0 -87 -57 -506 -475 l-475 -475 -55 0 -55 0 468 468 c257 257 465 471 461
475 -4 4 -21 7 -38 7 -26 0 -87 -57 -506 -475 l-475 -475 -55 0 -55 0 468 468
c257 257 465 471 461 475 -4 4 -21 7 -38 7 -26 0 -87 -57 -506 -476 l-477
-475 -51 3 -52 3 464 465 c256 255 462 468 460 472 -3 4 -19 8 -35 8 -27 0
-154 -123 -1102 -1064 l-1072 -1064 -3 51 -4 52 1007 1000 c553 550 1006 1006
1005 1013 0 7 -13 12 -31 12 -28 0 -134 -102 -1005 -966 l-974 -966 0 53 -1
54 906 900 c498 495 905 906 905 913 0 7 -13 12 -32 12 -35 0 -25 9 -1300
-1260 l-478 -475 0 57 0 56 805 799 c443 439 805 804 805 811 0 7 -13 12 -32
12 -35 0 -58 -22 -1124 -1083 l-500 -498 -54 3 -53 3 781 776 c430 426 782
781 782 787 0 7 -14 12 -31 12 -37 0 -64 -25 -1025 -983 l-600 -598 -53 3 -54
3 782 777 c429 428 781 782 781 788 0 5 -14 10 -30 10 -40 0 -51 -11 -925
-881 l-700 -698 -64 -9 -64 -9 792 791 c435 435 793 794 796 797 3 4 -11 9
-32 12 l-38 5 -807 -806 c-567 -566 -804 -809 -795 -815 8 -6 7 -7 -4 -4 -9 3
-20 2 -25 -3 -5 -4 -34 -15 -64 -25 -30 -10 -68 -24 -85 -32 -16 -8 349 365
813 829 464 464 840 847 836 851 -4 4 -21 7 -38 7 -27 0 -128 -97 -913 -882z
m536 -1134 c47 -47 77 -84 68 -82 -10 2 -236 -215 -632 -606 -611 -604 -616
-608 -636 -590 -22 20 -47 60 -32 51 4 -2 284 269 622 603 l614 607 -23 23
-22 22 -287 -283 c-157 -156 -433 -430 -613 -608 l-326 -324 -22 34 -21 34
608 602 c334 331 610 602 613 603 3 0 43 -39 89 -86z m163 -168 c6 -10 6 -16
1 -13 -5 4 -285 -266 -621 -599 -528 -523 -614 -604 -630 -595 -55 29 -74 7
572 646 424 420 612 613 608 623 -7 20 57 -37 70 -62z m78 -71 l24 -26 -94
-93 c-52 -51 -323 -318 -601 -594 l-506 -502 -39 16 -39 17 609 603 c335 332
612 604 616 604 4 0 17 -11 30 -25z m-1265 -309 c-181 -178 -333 -322 -338
-319 -4 2 -5 8 -3 12 3 4 6 30 7 59 1 28 6 50 10 49 12 -3 509 485 503 494 -3
5 -2 9 3 8 4 -1 15 1 23 4 13 5 33 8 110 15 8 1 -133 -144 -315 -322z m525
321 c0 -8 -832 -819 -836 -814 -3 2 -8 22 -11 43 l-6 39 374 367 374 368 53 0
c28 0 52 -1 52 -3z m1703 -109 l-103 -103 -27 28 -28 27 75 75 74 75 56 0 55
0 -102 -102z m150 -50 l-153 -153 -27 28 -28 27 125 125 125 125 55 0 55 0
-152 -152z m242 41 c-61 -61 -154 -151 -208 -201 -97 -90 -98 -90 -118 -72
-24 22 -47 60 -30 50 7 -5 83 63 184 163 l172 171 55 0 55 0 -110 -111z m258
104 l38 -6 -53 -54 c-29 -30 -142 -141 -251 -246 l-198 -190 -27 26 -26 27
229 224 c127 124 235 225 240 225 6 1 27 -2 48 -6z m173 -29 c13 -3 24 -10 24
-14 0 -4 -124 -127 -274 -274 -208 -202 -273 -271 -268 -284 3 -9 -12 0 -33
21 l-40 38 270 264 c156 153 276 262 283 260 8 -3 25 -8 38 -11z m-3051 -85
c-44 -44 -129 -126 -188 -182 -99 -92 -108 -98 -93 -64 29 70 147 203 229 259
50 34 111 66 127 68 2 0 -31 -36 -75 -81z m1364 17 l23 -24 -562 -559 c-496
-492 -566 -558 -596 -561 -89 -8 -92 -12 516 591 320 317 585 577 589 577 4 0
18 -11 30 -24z m1820 5 l24 -19 -578 -573 -577 -574 -57 -2 -56 -3 598 595
c329 327 604 595 610 595 7 0 23 -9 36 -19z m110 -85 l22 -23 -531 -529 -532
-529 -56 -3 -57 -2 557 555 c307 305 562 555 566 555 5 0 19 -11 31 -24z
m-2326 -559 l-514 -512 -57 -3 -57 -2 543 541 543 541 28 -26 28 -27 -514
-512z m2423 428 c1 -7 -211 -225 -470 -484 l-472 -472 -53 3 -52 3 507 505
506 505 16 -24 c9 -13 17 -29 18 -36z m-2276 -480 l-465 -465 -55 0 -55 0 493
492 492 492 27 -27 28 -27 -465 -465z m539 381 l23 -24 -412 -408 -412 -409
-56 -3 -57 -2 436 435 c240 239 440 435 446 435 5 0 20 -11 32 -24z m1787 -13
l16 -36 -404 -404 -403 -403 -55 0 -55 0 440 440 c242 242 441 440 443 440 2
0 10 -16 18 -37z m-1686 -88 l24 -25 -365 -360 -364 -359 -55 0 -55 0 388 384
c214 212 392 385 396 385 4 0 18 -11 31 -25z m1722 -87 c3 -31 1 -55 -2 -53
-3 2 -145 -135 -316 -306 l-309 -309 -55 0 -55 0 365 368 c201 202 366 365
367 362 1 -3 3 -31 5 -62z m-1621 -14 l24 -26 -305 -298 c-168 -165 -304 -303
-303 -308 1 -5 -28 -10 -65 -10 l-67 -2 340 335 c187 184 343 335 346 335 3 0
16 -12 30 -26z m-89 -334 l-314 -310 -56 0 -57 0 315 310 315 309 55 0 55 0
-313 -309z m198 -3 l-315 -314 -50 4 -50 5 302 300 c166 166 300 304 298 308
-2 4 26 8 63 9 l67 2 -315 -314z m200 -2 l-315 -315 -55 0 -55 0 308 308 c169
169 305 310 302 313 -3 3 25 7 62 8 l68 2 -315 -316z m1289 148 c-7 -21 -19
-54 -27 -73 -9 -19 -15 -39 -14 -43 2 -5 -1 -6 -6 -3 -5 3 -64 -51 -131 -118
-69 -70 -118 -126 -112 -129 7 -3 7 -4 -1 -3 -7 2 -22 -4 -33 -14 -22 -19
-126 -60 -153 -60 -10 0 89 105 233 250 138 138 251 246 253 240 2 -5 -2 -27
-9 -47z"/>
<path d="M4297 860 c-455 -454 -827 -828 -827 -832 0 -5 17 -8 37 -8 36 0 63
25 826 788 433 433 790 797 793 808 3 12 4 33 2 45 -4 21 -125 -96 -831 -801z"/>
<path d="M4397 760 c-400 -399 -727 -728 -727 -732 0 -5 17 -8 37 -8 36 0 61
23 726 688 378 378 690 697 693 708 3 12 4 33 2 45 -4 21 -110 -81 -731 -701z"/>
<path d="M4497 660 c-345 -344 -627 -628 -627 -632 0 -5 17 -8 37 -8 36 0 59
21 626 587 323 324 590 598 593 609 3 12 4 33 2 45 -4 21 -95 -66 -631 -601z"/>
<path d="M4606 570 c-284 -283 -522 -523 -527 -533 -8 -15 -5 -17 28 -17 36 0
55 17 526 488 268 268 490 497 493 508 3 12 4 33 2 45 -4 21 -78 -49 -522
-491z"/>
<path d="M4706 470 c-229 -228 -422 -423 -427 -432 -8 -16 -5 -18 28 -18 36 0
53 15 426 388 213 213 390 397 393 408 3 12 4 33 2 45 -4 21 -63 -34 -422
-391z"/>
<path d="M4806 370 c-174 -173 -322 -323 -327 -332 -8 -16 -5 -18 28 -18 35 0
51 13 325 288 159 158 291 297 294 308 3 12 4 33 2 45 -4 21 -48 -19 -322
-291z"/>
<path d="M4906 270 c-119 -118 -222 -223 -227 -232 -8 -16 -5 -18 28 -18 35 0
48 11 225 187 104 104 191 198 194 209 3 12 4 33 2 45 -3 21 -32 -4 -222 -191z"/>
<path d="M5003 168 c-63 -62 -119 -121 -124 -131 -8 -15 -5 -17 28 -17 33 0
46 9 130 93 84 84 93 97 93 130 0 20 -3 37 -7 37 -3 0 -57 -51 -120 -112z"/>
</g>
</svg>
