<?xml version="1.0" ?><svg id="Layer_1" style="enable-background:new 0 0 32 32;" version="1.1" viewBox="0 0 32 32" xml:space="preserve" xmlns="http://www.w3.org/2000/svg" xmlns:xlink="http://www.w3.org/1999/xlink"><style type="text/css">
	.st0{clip-path:url(#SVGID_2_);}
	.st1{clip-path:url(#SVGID_4_);}
</style><g><g><path d="M13.7192383,27c-0.2558594,0-0.5117188-0.0976563-0.7070313-0.2929688l-2.5268555-2.5273438    c-0.390625-0.390625-0.390625-1.0234375,0-1.4140625l2.5268555-2.5268555c0.390625-0.390625,1.0234375-0.390625,1.4140625,0    s0.390625,1.0234375,0,1.4140625l-1.8198242,1.8198242l1.8198242,1.8203125c0.390625,0.390625,0.390625,1.0239258,0,1.4140625    C14.230957,26.9023438,13.9750977,27,13.7192383,27z"/></g><g><path d="M18.2807617,12.0541992c-0.2558594,0-0.5117188-0.0976563-0.7070313-0.2929688    c-0.390625-0.390625-0.390625-1.0234375,0-1.4140625l1.8198242-1.8198242l-1.8198242-1.8203125    c-0.390625-0.390625-0.390625-1.0239258,0-1.4140625c0.390625-0.390625,1.0234375-0.390625,1.4140625,0l2.5268555,2.5273438    c0.390625,0.390625,0.390625,1.0234375,0,1.4140625l-2.5268555,2.5268555    C18.7924805,11.956543,18.5366211,12.0541992,18.2807617,12.0541992z"/></g><g><path d="M20.8076172,24.4726563h-9.6152344c-0.5522461,0-1-0.4477539-1-1s0.4477539-1,1-1h9.6152344    C24.222168,22.4726563,27,19.6948242,27,16.2807617c0-2.0722656-1.0302734-3.9985352-2.7553711-5.1523438    c-0.4594727-0.3066406-0.5825195-0.9277344-0.2753906-1.3867188c0.3061523-0.4599609,0.9287109-0.5825195,1.3867188-0.2753906    C27.6376953,10.9916992,29,13.5395508,29,16.2807617C29,20.7978516,25.324707,24.4726563,20.8076172,24.4726563z"/></g><g><path d="M7.1699219,22.6835938c-0.1923828,0-0.387207-0.0556641-0.559082-0.1713867    C4.3500977,20.9838867,3,18.4443359,3,15.7192383c0-4.5170898,3.675293-8.1918945,8.1923828-8.1918945h9.6152344    c0.5522461,0,1,0.4477539,1,1s-0.4477539,1-1,1h-9.6152344C7.777832,9.5273438,5,12.3051758,5,15.7192383    c0,2.0600586,1.0209961,3.9799805,2.730957,5.1357422c0.4575195,0.3095703,0.5776367,0.9311523,0.2685547,1.3886719    C7.8061523,22.5292969,7.4907227,22.6835938,7.1699219,22.6835938z"/></g></g></svg>